<svg width="50" height="50" viewBox="0 0 50 50" fill="none" xmlns="http://www.w3.org/2000/svg">
<g id="access_time_24px">
<path id="icon/device/access_time_24px" fill-rule="evenodd" clip-rule="evenodd" d="M24.9792 4.16669C13.4792 4.16669 4.16666 13.5 4.16666 25C4.16666 36.5 13.4792 45.8334 24.9792 45.8334C36.5 45.8334 45.8333 36.5 45.8333 25C45.8333 13.5 36.5 4.16669 24.9792 4.16669ZM25 41.6667C15.7917 41.6667 8.33332 34.2084 8.33332 25C8.33332 15.7917 15.7917 8.33335 25 8.33335C34.2083 8.33335 41.6667 15.7917 41.6667 25C41.6667 34.2084 34.2083 41.6667 25 41.6667ZM22.9167 14.5834H26.0417V25.5209L35.4167 31.0834L33.8542 33.6459L22.9167 27.0834V14.5834Z" fill="#FAED26"/>
</g>
</svg>
